<svg width="35" height="27" viewBox="0 0 35 27" fill="none" xmlns="http://www.w3.org/2000/svg">
<path d="M13.7686 1H21.2314C28.3042 1.00025 34 6.61597 34 13.5C34 20.3839 28.301 25.9997 21.2314 26H13.7686C6.69583 25.9997 1 20.384 1 13.5C1.00001 6.61305 6.69882 1.00025 13.7686 1Z" stroke="#2A2324" stroke-width="2" stroke-miterlimit="10" stroke-linecap="round" stroke-linejoin="round"/>
<path d="M9.53731 10.6318C8.03374 10.6318 6.81641 11.8254 6.81641 13.2995C6.81641 14.7737 8.03374 15.9673 9.53731 15.9673C11.0409 15.9673 12.2582 14.7737 12.2582 13.2995C12.2582 11.8254 11.0409 10.6318 9.53731 10.6318ZM9.53731 15.477C8.31011 15.477 7.3165 14.5028 7.3165 13.2995C7.3165 12.0963 8.31011 11.1221 9.53731 11.1221V15.477Z" fill="#2A2324"/>
<path d="M25.4611 10.6318C23.9576 10.6318 22.7402 11.8254 22.7402 13.2995C22.7402 14.7737 23.9576 15.9673 25.4611 15.9673C26.9647 15.9673 28.182 14.7737 28.182 13.2995C28.182 11.8254 26.9647 10.6318 25.4611 10.6318ZM25.4611 15.477C24.2339 15.477 23.2403 14.5028 23.2403 13.2995C23.2403 12.0963 24.2339 11.1221 25.4611 11.1221V15.477Z" fill="#2A2324"/>
<path d="M17.3942 16.3674C15.8051 16.3674 14.7852 14.8706 14.6634 14.6803C14.4529 14.3577 14.5516 13.9287 14.8839 13.7222C15.2162 13.5158 15.6505 13.6126 15.861 13.9384C15.8939 13.99 16.6737 15.1867 17.6706 14.948C18.3023 14.7997 18.8221 14.1351 19.0985 13.5609C19.2663 13.2158 19.6841 13.0641 20.0427 13.2287C20.3948 13.3932 20.5461 13.8061 20.3816 14.1545C20.1217 14.6899 19.3716 15.9738 18.0029 16.2964C17.789 16.3448 17.5883 16.3674 17.3942 16.3674Z" fill="#2A2324"/>
</svg>
