<svg width="30" height="30" viewBox="0 0 30 30" fill="none" xmlns="http://www.w3.org/2000/svg">
<path opacity="0.5" d="M16.5813 3.76465C17.0638 4.78965 17.6163 6.24214 17.9013 8.05214C18.0238 8.82714 18.0788 9.55214 18.0913 10.2096C18.1088 11.0921 18.8038 11.8171 19.6888 11.8371C20.2663 11.8521 20.8888 11.8971 21.5463 11.9871C23.4813 12.2546 25.0438 12.8246 26.1538 13.3321C26.1513 8.04714 21.8663 3.76465 16.5813 3.76465Z" fill="#3DCE94"/>
<path d="M16.5813 3.76465C17.0638 4.78965 17.6163 6.24214 17.9013 8.05214C18.0238 8.82714 18.0788 9.55214 18.0913 10.2096C18.1088 11.0921 18.8038 11.8171 19.6888 11.8371C20.2663 11.8521 20.8888 11.8971 21.5463 11.9871C23.4813 12.2546 25.0438 12.8246 26.1538 13.3321C26.1513 8.04714 21.8663 3.76465 16.5813 3.76465Z" stroke="#2A2324" stroke-width="1.5" stroke-miterlimit="10"/>
<path d="M16.5813 3.76465C16.0613 3.76465 15.5413 3.76465 15.0238 3.76465C12.9388 3.76465 10.8513 3.76465 8.76627 3.76465C8.43627 3.76465 6.67877 3.79715 5.25877 5.21715C4.36127 6.11465 3.80627 7.35464 3.80627 8.72464V21.1521C3.80627 23.8896 6.02627 26.1121 8.76627 26.1121H21.1938C23.9313 26.1121 26.1538 23.8921 26.1538 21.1521V14.8021C26.1538 14.4246 26.1538 14.0471 26.1538 13.6696" stroke="#2A2324" stroke-width="1.5" stroke-miterlimit="10"/>
<path d="M14.9788 16.3672H10.1838" stroke="#2A2324" stroke-width="1.5" stroke-miterlimit="10" stroke-linecap="round" stroke-linejoin="round"/>
<path d="M19.7738 20.9722H10.1838" stroke="#2A2324" stroke-width="1.5" stroke-miterlimit="10" stroke-linecap="round" stroke-linejoin="round"/>
</svg>
