<svg width="30" height="30" viewBox="0 0 30 30" fill="none" xmlns="http://www.w3.org/2000/svg">
<path opacity="0.5" d="M10.7881 8.815C10.5406 8.4875 10.1956 7.955 9.96811 7.2225C9.96811 7.2225 9.73561 6.465 9.73561 5.68C9.73311 2.82 12.0531 0.5 14.9156 0.5C17.7781 0.5 20.0981 2.82 20.0981 5.6825C20.0981 6.465 19.8656 7.225 19.8656 7.225C19.6381 7.955 19.2931 8.49 19.0456 8.8175C16.2906 8.815 13.5406 8.815 10.7881 8.815Z" fill="#3DCE94"/>
<path d="M24.0706 8.81494C17.9431 8.81494 11.8156 8.81494 5.68811 8.81494C5.27311 8.81494 4.92311 9.22744 4.97061 9.66494C5.52811 14.9849 6.21811 20.3199 7.03061 25.6074C7.08061 25.9349 7.37811 26.1724 7.73811 26.1724C12.4981 26.1724 17.2581 26.1724 22.0181 26.1724C22.3781 26.1724 22.6756 25.9349 22.7256 25.6074C23.5381 20.3224 24.2281 14.9849 24.7856 9.66494C24.8356 9.22744 24.4856 8.81494 24.0706 8.81494Z" stroke="#2A2324" stroke-width="1.5" stroke-miterlimit="10" stroke-linecap="round" stroke-linejoin="round"/>
<path d="M17.1731 5.68262H12.5856" stroke="#2A2324" stroke-width="1.5" stroke-miterlimit="10" stroke-linecap="round" stroke-linejoin="round"/>
<path d="M18.2706 14.425L11.4906 21.205" stroke="#2A2324" stroke-width="1.5" stroke-miterlimit="10" stroke-linecap="round" stroke-linejoin="round"/>
<path d="M18.2706 21.205L11.4906 14.425" stroke="#2A2324" stroke-width="1.5" stroke-miterlimit="10" stroke-linecap="round" stroke-linejoin="round"/>
</svg>
