<svg width="30" height="30" viewBox="0 0 30 30" fill="none" xmlns="http://www.w3.org/2000/svg">
<path opacity="0.5" d="M14.5 12C16.433 12 18 10.433 18 8.49999C18 6.567 16.433 5 14.5 5C12.567 5 11 6.567 11 8.49999C11 10.433 12.567 12 14.5 12Z" fill="#3DCE94"/>
<path d="M7.35727 10.1389C5.98815 5.09098 8.84978 2.84817 10.9425 2.1734C11.3481 2.04261 11.7709 2.24964 11.9785 2.62184L15.3905 8.73787C15.6338 9.17399 15.492 9.68446 15.027 9.86681C14.7067 9.99245 14.2793 10.1453 13.7233 10.3218C11.9954 10.8705 13.9962 16.7233 15.815 19.1009C16.8202 20.4149 18.1437 20.1463 19.1558 19.543C19.7542 19.1863 20.6044 19.3053 20.9176 19.9276L23.5605 25.178C23.8048 25.6634 23.6167 26.2632 23.1124 26.4655C14.9295 29.7489 9.23039 17.1139 7.35727 10.1389Z" stroke="#2A2324" stroke-width="1.5"/>
</svg>
