<svg width="30" height="30" viewBox="0 0 30 30" fill="none" xmlns="http://www.w3.org/2000/svg">
<path opacity="0.5" d="M27.9613 10.7246C27.9613 7.98714 25.7413 5.76465 23.0013 5.76465H19.6263H10.5738H7.19877C4.46127 5.76465 2.23877 7.98464 2.23877 10.7246V11.2346H27.9588V10.7246H27.9613Z" fill="#3DCE94"/>
<path d="M23.0038 5.76709H19.6288H10.5763H7.20127C4.46377 5.76709 2.24127 7.98708 2.24127 10.7271V13.1546V16.9046V19.4021C2.24127 22.1421 4.46127 24.3621 7.20127 24.3621H10.5763H19.6288H23.0038C25.7438 24.3621 27.9638 22.1421 27.9638 19.4021V16.9421V13.1921V10.7246C27.9613 7.98708 25.7413 5.76709 23.0038 5.76709Z" stroke="#2A2324" stroke-width="1.5" stroke-miterlimit="10"/>
<path d="M12.2438 20.4922H7.44878" stroke="#2A2324" stroke-width="1.5" stroke-miterlimit="10" stroke-linecap="round" stroke-linejoin="round"/>
<path d="M17.0388 15.8848H7.44878" stroke="#2A2324" stroke-width="1.5" stroke-miterlimit="10" stroke-linecap="round" stroke-linejoin="round"/>
<path d="M2.24377 11.2346H27.9613" stroke="#2A2324" stroke-width="1.5" stroke-miterlimit="10" stroke-linecap="round" stroke-linejoin="round"/>
</svg>
