<svg width="30" height="31" viewBox="0 0 30 31" fill="none" xmlns="http://www.w3.org/2000/svg">
<path opacity="0.5" d="M12.9525 5H12.4525H11.715H10.335H6.96C4.2225 5 2 7.22001 2 9.96001V12.3875V16.1375V17.93H11.7125H12.45H12.95H17.3675V9.42001C17.37 6.97751 15.3925 5 12.9525 5Z" fill="#3DCE94"/>
<path d="M9.35999 25.5876C10.5736 25.5876 11.5575 24.6295 11.5575 23.4476C11.5575 22.2657 10.5736 21.3076 9.35999 21.3076C8.14635 21.3076 7.16249 22.2657 7.16249 23.4476C7.16249 24.6295 8.14635 25.5876 9.35999 25.5876Z" stroke="#2A2324" stroke-width="1.5" stroke-miterlimit="10" stroke-linecap="round" stroke-linejoin="round"/>
<path d="M21.6325 25.5876C22.8462 25.5876 23.83 24.6295 23.83 23.4476C23.83 22.2657 22.8462 21.3076 21.6325 21.3076C20.4189 21.3076 19.435 22.2657 19.435 23.4476C19.435 24.6295 20.4189 25.5876 21.6325 25.5876Z" stroke="#2A2324" stroke-width="1.5" stroke-miterlimit="10" stroke-linecap="round" stroke-linejoin="round"/>
<path d="M23.6725 23.5926H24.875C26.1175 23.5926 27.1275 22.5851 27.1275 21.3401V18.2975V16.4225V16.1725V14.2975C27.1275 11.37 24.755 8.99756 21.8275 8.99756H20.3925H20.0025H19.34H17.375V14.2975V18.2975V23.5901H19.34" stroke="#2A2324" stroke-width="1.5" stroke-miterlimit="10"/>
<path d="M12.9525 5H12.4525H11.715H10.335H6.96C4.2225 5 2 7.22001 2 9.96001V12.3875V16.1375V17.93H11.7125H12.45H12.95H17.3675V9.42001C17.37 6.97751 15.3925 5 12.9525 5Z" stroke="#2A2324" stroke-width="1.5" stroke-miterlimit="10"/>
<path d="M11.715 23.5925H12.4525H12.9525H17.37V17.9275H12.9525H12.4525H11.715H2.0025V21.3425C2.0025 22.585 3.01 23.5925 4.2525 23.5925H7.3775" stroke="#2A2324" stroke-width="1.5" stroke-miterlimit="10"/>
</svg>
