<svg width="120" height="120" viewBox="0 0 120 120" fill="none" xmlns="http://www.w3.org/2000/svg">
<path d="M60.4151 103.745C84.4174 103.745 103.875 84.287 103.875 60.2847C103.875 36.2824 84.4174 16.8247 60.4151 16.8247C36.4128 16.8247 16.9551 36.2824 16.9551 60.2847C16.9551 84.287 36.4128 103.745 60.4151 103.745Z" stroke="#2A2324" stroke-width="7" stroke-miterlimit="10" stroke-linecap="round" stroke-linejoin="round"/>
<path d="M40.5352 64.5347C42.8824 64.5347 44.7852 62.6319 44.7852 60.2847C44.7852 57.9375 42.8824 56.0347 40.5352 56.0347C38.1879 56.0347 36.2852 57.9375 36.2852 60.2847C36.2852 62.6319 38.1879 64.5347 40.5352 64.5347Z" fill="#2A2324"/>
<path d="M60.415 64.5347C62.7622 64.5347 64.665 62.6319 64.665 60.2847C64.665 57.9375 62.7622 56.0347 60.415 56.0347C58.0678 56.0347 56.165 57.9375 56.165 60.2847C56.165 62.6319 58.0678 64.5347 60.415 64.5347Z" fill="#2A2324"/>
<path d="M80.2852 64.5347C82.6324 64.5347 84.5352 62.6319 84.5352 60.2847C84.5352 57.9375 82.6324 56.0347 80.2852 56.0347C77.9379 56.0347 76.0352 57.9375 76.0352 60.2847C76.0352 62.6319 77.9379 64.5347 80.2852 64.5347Z" fill="#2A2324"/>
</svg>
