<svg width="25" height="25" viewBox="0 0 25 25" fill="none" xmlns="http://www.w3.org/2000/svg">
<path d="M0.333496 12.25C0.333496 5.62258 5.70608 0.25 12.3335 0.25C18.9609 0.25 24.3335 5.62258 24.3335 12.25C24.3335 18.8774 18.9609 24.25 12.3335 24.25C5.70608 24.25 0.333496 18.8774 0.333496 12.25Z" fill="#3DCE94"/>
<path d="M11.9565 17.418C11.3645 17.418 10.8565 17.294 10.4325 17.046C10.0165 16.798 9.67253 16.43 9.40053 15.942L10.3725 15.234C10.5645 15.57 10.7805 15.814 11.0205 15.966C11.2605 16.118 11.5205 16.194 11.8005 16.194C12.2485 16.194 12.5805 16.062 12.7965 15.798C13.0125 15.526 13.1205 15.066 13.1205 14.418V8.406H14.5245V14.538C14.5245 15.066 14.4365 15.55 14.2605 15.99C14.0845 16.422 13.8085 16.77 13.4325 17.034C13.0565 17.29 12.5645 17.418 11.9565 17.418Z" fill="white"/>
</svg>
